# xmcd
#
# Track frame offsets: 
#        150
#        12920
#        25688
#        41603
#        52098
#        65669
#        82850
#        98791
#        110643
#        127891
#        142488
#        156558
#        171091
#        187258
#
# Disc length: 2663 seconds
#
# Revision: 2
# Processed by: cddbd v1.5.2PL0 Copyright (c) Steve Scherf et al.
# Submitted via: ExactAudioCopy v1.0b3
#
DISCID=c80a650e
DTITLE=Truck Stop - 6 Richtige
DYEAR=2010
DGENRE=Country
TTITLE0=Was soll´n wir denn in Nashville
TTITLE1=Einfach mal nichts tun
TTITLE2=Halt mal eben mein Bier
TTITLE3=Hello I´m Johnny Cash
TTITLE4=Ju kaen Denglisch
TTITLE5=Freiheit um die Nase
TTITLE6=Ein Cowboy ohne Pferd
TTITLE7=Rodeo
TTITLE8=Es liegt in Menschenhand
TTITLE9=Ich bin wieder frei
TTITLE10=HH fuer Hamburg
TTITLE11=Sicherheitskurt
TTITLE12=Auf dem Highway der Gefuehle
TTITLE13=100.000 Kilometer
EXTD=
EXTT0=
EXTT1=
EXTT2=
EXTT3=
EXTT4=
EXTT5=
EXTT6=
EXTT7=
EXTT8=
EXTT9=
EXTT10=
EXTT11=
EXTT12=
EXTT13=
PLAYORDER=
